<svg width="35" height="35" viewBox="0 0 35 35" fill="none" xmlns="http://www.w3.org/2000/svg">
<path d="M15.7236 18.3836C15.7034 19.6685 14.7902 20.717 13.6236 20.717C12.474 20.717 11.5236 19.6732 11.5236 18.3836C11.5236 17.0941 12.4414 16.0503 13.6205 16.0503C14.7996 16.0503 15.7438 17.0987 15.7236 18.3836Z" fill="white"/>
<path d="M23.4734 18.3836C23.4531 19.6685 22.5494 20.717 21.3765 20.717C20.2036 20.717 19.2765 19.6732 19.2765 18.3836C19.2765 17.0941 20.1943 16.0503 21.3765 16.0503C22.5587 16.0503 23.4889 17.0987 23.4734 18.3836Z" fill="white"/>
<path d="M17.4999 0C14.0388 0 10.6553 1.02636 7.77747 2.94928C4.89961 4.87221 2.6566 7.60533 1.33206 10.803C0.00752902 14.0007 -0.339029 17.5194 0.336212 20.9141C1.01145 24.3087 2.67817 27.4269 5.12558 29.8744C7.573 32.3218 10.6912 33.9885 14.0859 34.6637C17.4805 35.339 20.9992 34.9924 24.1969 33.6679C27.3946 32.3433 30.1277 30.1003 32.0507 27.2225C33.9736 24.3446 34.9999 20.9612 34.9999 17.5C34.9999 12.8587 33.1562 8.40752 29.8743 5.12563C26.5924 1.84374 22.1412 0 17.4999 0V0ZM29.0671 23.38C27.2811 24.6974 25.2815 25.6972 23.1559 26.3356C22.677 25.6936 22.2539 25.0119 21.8913 24.2978C22.5826 24.0395 23.2499 23.7209 23.8855 23.3458C23.7206 23.2338 23.5573 23.1093 23.3971 22.9787C21.5507 23.8469 19.5356 24.297 17.4953 24.297C15.455 24.297 13.4398 23.8469 11.5935 22.9787C11.438 23.1 11.2731 23.2244 11.1051 23.3458C11.7396 23.7204 12.4059 24.0384 13.0962 24.2962C12.7335 25.0108 12.3104 25.6931 11.8315 26.3356C9.70858 25.6923 7.71181 24.6895 5.92817 23.3707C5.5144 19.0384 6.3404 14.6424 9.38773 10.136C10.9239 9.43378 12.5449 8.93441 14.2099 8.65044C14.4388 9.05738 14.6465 9.47586 14.8322 9.90422C16.6033 9.63821 18.4043 9.63821 20.1755 9.90422C20.3605 9.47556 20.5682 9.05705 20.7977 8.65044C22.4603 8.93196 24.0788 9.42982 25.6122 10.1313C27.8895 13.4633 29.1791 17.1609 29.1791 21.3391C29.1708 22.009 29.1334 22.6893 29.0671 23.38Z" fill="white"/>
</svg>
