<svg width="228" height="45" viewBox="0 0 228 45" fill="none" xmlns="http://www.w3.org/2000/svg">
<path d="M87.9461 15.1931H95.6746C97.1356 15.1931 98.4426 15.4554 99.239 15.9377C100.679 16.7922 101.41 18.3695 101.41 20.6489C101.41 24.965 101.294 26.3017 100.878 27.2651C100.037 29.084 98.5306 29.8068 95.4524 29.8068H87.9461V15.1931ZM95.1236 26.4552C96.1423 26.4552 96.5857 26.2353 96.9619 25.6007C97.2722 25.0967 97.3602 24.2857 97.3602 22.2915C97.3602 20.5607 97.2444 19.728 96.9619 19.2904C96.6517 18.7864 96.1423 18.5882 95.1236 18.5882H91.9099V26.4552H95.1236Z" fill="#FFF8E6"/>
<path d="M114.859 15.5872C116.276 16.2012 117.096 17.2309 117.406 18.7864C117.561 19.4657 117.606 20.539 117.606 22.5768C117.606 25.7313 117.451 26.7393 116.742 27.8355C115.768 29.3693 114.079 29.9168 110.475 29.9168C108.173 29.9168 107.021 29.7198 106.068 29.1276C104.917 28.4266 104.297 27.5068 104.009 26.083C103.893 25.469 103.853 24.7233 103.853 23.2778C103.853 20.626 103.969 19.2022 104.253 18.216C104.585 16.9892 105.604 16.003 107.087 15.4772C107.884 15.2149 109.08 15.0832 110.963 15.0832C112.973 15.0832 113.996 15.2149 114.859 15.5872ZM108.238 19.3122C107.994 19.7944 107.927 20.5172 107.927 22.6867C107.927 26.3018 108.104 26.5423 110.806 26.5423C112.427 26.5423 112.932 26.3235 113.264 25.4908C113.486 24.9181 113.552 24.264 113.552 22.3362C113.552 20.3202 113.508 19.8597 113.286 19.334C112.977 18.633 112.446 18.4359 110.855 18.4359C109.123 18.4359 108.592 18.6112 108.238 19.3122Z" fill="#FFF8E6"/>
<path d="M138.73 29.8068H134.832V25.4255C134.832 24.067 134.832 24.067 135.121 18.6112H134.988C134.301 20.8242 133.593 23.0372 132.839 25.272L131.311 29.8068H127.924L126.351 25.2491C125.974 24.1529 125.598 23.036 125.222 21.9181C124.867 20.823 124.513 19.7268 124.159 18.61H124.026C124.358 24.1529 124.358 24.1529 124.358 25.4243V29.8057H120.46V15.1931H126.634L128.007 19.3775C128.47 20.7795 128.671 21.4393 129.026 22.6202C129.181 23.2124 129.336 23.7817 129.513 24.3739H129.668L130.199 22.3797C130.421 21.5034 130.687 20.6489 131.085 19.4015L132.422 15.1931H138.734L138.73 29.8068Z" fill="#FFF8E6"/>
<path d="M145.931 29.8068H141.967V15.1931H145.931V29.8068Z" fill="#FFF8E6"/>
<path d="M163.855 29.8068H157.14L154.819 23.6454C154.2 21.9582 153.58 20.2709 152.982 18.5619H152.804C152.982 22.3533 152.982 22.3533 152.982 23.9524V29.8022H149.106V15.1931H155.772L158.122 21.3545C158.743 22.9971 159.363 24.6626 159.939 26.3063H160.09C159.935 22.713 159.935 22.713 159.935 21.0475V15.1931H163.855V29.8068Z" fill="#FFF8E6"/>
<path d="M179.895 15.1931V24.4175C179.895 24.6362 179.78 26.3017 179.762 26.4988C179.607 27.7038 178.965 28.69 177.968 29.2375C176.994 29.7633 176.042 29.9168 173.54 29.9168C171.192 29.9168 170.04 29.7633 169.067 29.3257C167.76 28.7118 167.206 27.8137 167.099 26.1047C167.055 25.6456 167.041 25.1842 167.055 24.7233V15.1931H171.018V24.7233C171.018 26.3017 171.417 26.564 173.681 26.564C175.587 26.564 175.94 26.2582 175.94 24.5263V15.1931H179.895Z" fill="#FFF8E6"/>
<path d="M191.115 19.7509V19.4875C191.115 18.326 190.717 18.0625 189.032 18.0625C187.105 18.0625 186.64 18.326 186.64 19.4875C186.64 20.035 186.795 20.429 187.06 20.5608C187.392 20.7578 187.392 20.7578 190.116 20.933C192.375 21.0865 193.195 21.2618 193.97 21.7222C194.989 22.3362 195.32 23.1896 195.32 25.1838C195.32 27.1563 195.033 28.162 194.278 28.8218C193.305 29.6545 192.109 29.9168 189.184 29.9168C185.42 29.9168 184.003 29.5446 183.249 28.3613C182.786 27.6385 182.652 26.8493 182.652 25.075H186.416V25.3636C186.416 25.9776 186.548 26.3499 186.859 26.5687C187.191 26.8321 187.368 26.8539 189.184 26.8539C190.468 26.8539 190.667 26.8321 191 26.5469C191.288 26.3064 191.421 25.9742 191.421 25.3866C191.421 24.3556 191.111 24.1151 189.561 24.0269C187.147 23.8963 185.929 23.7646 185.177 23.5893C183.338 23.1312 182.674 22.0556 182.674 19.4474C182.674 17.6731 183.05 16.578 183.892 15.9858C184.866 15.3066 186.106 15.0878 188.985 15.0878C192.085 15.0878 193.347 15.3948 194.1 16.3363C194.654 16.9938 194.897 17.8701 194.897 19.0969L194.875 19.7544L191.115 19.7509Z" fill="#FFF8E6"/>
<path d="M211.267 21.5469C211.289 22.7955 211.312 23.9135 211.312 24.6798C211.312 26.8275 211.046 27.792 210.248 28.6465C209.296 29.6316 208.035 29.9168 204.402 29.9168C202.276 29.9168 201.369 29.8022 200.505 29.4346C198.537 28.6018 197.759 27.0028 197.759 23.8218C197.759 22.6168 197.803 20.4702 197.847 19.7463C197.963 18.0808 198.623 16.8105 199.751 16.0659C200.947 15.2767 202.01 15.0797 205.155 15.0797C207.746 15.0797 208.654 15.2114 209.651 15.7807C210.735 16.3718 211.201 17.5333 211.271 19.7463H207.264C207.108 18.5848 206.71 18.3443 204.85 18.3443C203.211 18.3443 202.48 18.6077 202.126 19.3087C201.883 19.7669 201.816 20.3603 201.816 22.3327C201.816 24.217 201.905 25.2239 202.082 25.7061C202.348 26.3636 203.055 26.6488 204.496 26.6488C206.001 26.6488 206.71 26.4518 207.042 25.9696C207.286 25.5973 207.33 25.3556 207.352 24.2388H204.602V21.5469H211.267Z" fill="#C86EED"/>
<path d="M227.292 21.5469C227.314 22.7955 227.336 23.9135 227.336 24.6798C227.336 26.8275 227.07 27.792 226.273 28.6465C225.321 29.6316 224.059 29.9168 220.427 29.9168C218.301 29.9168 217.393 29.8022 216.529 29.4346C214.561 28.6018 213.784 27.0028 213.784 23.8218C213.784 22.6168 213.827 20.4702 213.873 19.7463C213.988 18.0808 214.647 16.8105 215.776 16.0659C216.973 15.2767 218.036 15.0797 221.18 15.0797C223.771 15.0797 224.678 15.2114 225.675 15.7807C226.761 16.3718 227.225 17.5333 227.296 19.7463H223.287C223.132 18.5848 222.733 18.3443 220.873 18.3443C219.235 18.3443 218.503 18.6077 218.149 19.3087C217.906 19.7669 217.839 20.3603 217.839 22.3327C217.839 24.217 217.928 25.2239 218.105 25.7061C218.371 26.3636 219.08 26.6488 220.519 26.6488C222.024 26.6488 222.733 26.4518 223.066 25.9696C223.309 25.5973 223.354 25.3556 223.376 24.2388H220.63V21.5469H227.292Z" fill="#C86EED"/>
<path d="M59.8023 10.097C59.8023 10.097 59.8023 10.097 59.8023 10.0901C59.6405 9.64035 59.4223 9.21243 59.1528 8.81639L59.0695 8.69154C58.9996 8.58545 58.9222 8.4844 58.8379 8.38914L58.8298 8.37997C58.7226 8.2471 58.6068 8.11881 58.4825 7.9951L58.0449 7.54837C50.1949 -0.221242 40.1915 0.0490858 40.1915 0.0490858C40.1915 0.0490858 30.1882 -0.223533 22.3393 7.54265L21.9017 7.98937C21.7805 8.11308 21.6648 8.24137 21.5544 8.37425L21.5463 8.38341C21.462 8.47867 21.3846 8.57972 21.3148 8.68581L21.2314 8.81067C20.9615 9.20644 20.7433 9.63442 20.582 10.0844C20.5815 10.0867 20.5815 10.089 20.582 10.0913C19.4359 12.8633 18.0768 19.3924 21.3657 32.5513L21.5336 32.5284C21.6466 32.7619 21.7827 32.9837 21.9399 33.1905C22.333 33.7282 22.6921 34.2894 23.0154 34.8709C23.5597 35.829 24.3976 36.5911 25.4083 37.0473C25.6687 37.1618 25.9593 37.2912 26.2661 37.4253C27.7029 38.05 29.1821 38.5744 30.693 38.9945C30.4956 38.194 30.3758 37.3766 30.3353 36.5536C29.7246 36.246 29.1314 35.9056 28.5582 35.5341C28.2179 35.3157 27.8853 35.0866 27.5603 34.8468C26.4339 34.0061 25.4291 33.0622 25.098 32.1882C24.2147 29.8572 21.8566 21.1197 22.1541 19.106C22.4516 17.0923 24.268 14.6846 27.9076 13.1222C28.4413 12.8931 28.9171 12.7018 29.3489 12.5494C31.8634 11.6331 32.8647 11.8427 34.783 12.5208C37.0311 13.3157 39.1717 13.6055 40.1892 13.6055C40.9047 13.6055 42.1769 13.4612 43.6495 13.0992H43.6587C44.2769 12.9469 44.9322 12.7556 45.5955 12.5265C47.8437 11.7316 48.8369 11.5735 52.4731 13.1359C56.1093 14.6983 57.9338 17.1083 58.2279 19.1198C58.3436 19.8895 58.0658 21.6398 57.634 23.6454C56.9394 26.8791 55.8292 30.7622 55.2828 32.202C54.9528 33.076 53.948 34.0198 52.8216 34.8606C51.9471 35.5095 51.0175 36.0825 50.0432 36.573C50.0027 37.3961 49.8829 38.2134 49.6855 39.014C51.1966 38.5929 52.6762 38.0682 54.1135 37.4436C54.4203 37.3096 54.7109 37.1813 54.9714 37.0656C55.982 36.6094 56.8199 35.8473 57.3642 34.8892C57.6897 34.3032 58.0516 33.7378 58.4478 33.1962C58.605 32.9894 58.7412 32.7676 58.8541 32.5342L59.022 32.5571C62.3074 19.3981 60.9484 12.869 59.8023 10.097Z" fill="#353535"/>
<path d="M64.5197 37.9797C64.434 38.6455 64.1506 39.2712 63.7055 39.7777C63.2604 40.2842 62.6734 40.6487 62.019 40.8252C61.3645 41.0016 60.6718 40.9821 60.0285 40.7691C59.3852 40.5561 58.8202 40.1592 58.4049 39.6285C57.9896 39.0977 57.7427 38.4571 57.6953 37.7876C57.648 37.118 57.8023 36.4496 58.1388 35.8668C58.4754 35.284 58.979 34.8131 59.586 34.5135C60.193 34.2139 60.8762 34.0991 61.5492 34.1837C62.4517 34.2976 63.2715 34.7615 63.8285 35.4733C64.3855 36.1851 64.6341 37.0866 64.5197 37.9797Z" fill="#353535"/>
<path d="M61.7518 32.596C60.7612 32.4716 59.7555 32.6405 58.862 33.0816C57.9685 33.5227 57.2273 34.216 56.732 35.0739C56.2367 35.9319 56.0097 36.9158 56.0797 37.9014C56.1496 38.887 56.5134 39.8299 57.1249 40.611C57.7365 41.392 58.5684 41.976 59.5154 42.2892C60.4625 42.6024 61.4821 42.6307 62.4454 42.3705C63.4087 42.1103 64.2724 41.5733 64.9272 40.8274C65.582 40.0815 65.9986 39.1603 66.1243 38.1801C66.2902 36.8663 65.9232 35.541 65.1037 34.4944C64.2842 33.4478 63.0789 32.7652 61.7518 32.596ZM64.5197 37.9796C64.434 38.6455 64.1506 39.2712 63.7055 39.7776C63.2604 40.2841 62.6735 40.6487 62.019 40.8251C61.3645 41.0016 60.6718 40.9821 60.0285 40.7691C59.3853 40.5561 58.8202 40.1591 58.4049 39.6284C57.9896 39.0977 57.7427 38.4571 57.6953 37.7875C57.648 37.118 57.8023 36.4495 58.1389 35.8668C58.4754 35.284 58.979 34.813 59.586 34.5134C60.1931 34.2138 60.8762 34.0991 61.5492 34.1836C62.4517 34.2976 63.2715 34.7615 63.8285 35.4733C64.3855 36.1851 64.6342 37.0866 64.5197 37.9796Z" fill="#FFF8E6"/>
<path d="M57.0285 38.1812C56.8617 36.8673 57.2283 35.5415 58.048 34.4947C58.8677 33.4479 60.0735 32.7655 61.401 32.5972C61.4624 32.588 61.5168 32.5834 61.5839 32.5777C61.2166 32.5448 60.8467 32.5513 60.4807 32.5972C59.1681 32.7612 57.9731 33.4287 57.1529 34.4559C56.3328 35.483 55.953 36.7878 56.0953 38.0892C56.2376 39.3907 56.8907 40.5849 57.914 41.4146C58.9373 42.2444 60.2489 42.6435 61.5666 42.526C60.4242 42.4187 59.3526 41.9302 58.5279 41.1406C57.7032 40.3511 57.1745 39.3075 57.0285 38.1812Z" fill="#D6D1C1"/>
<path d="M64.5197 37.9797C64.434 38.6455 64.1506 39.2712 63.7055 39.7777C63.2604 40.2842 62.6734 40.6487 62.019 40.8252C61.3645 41.0016 60.6718 40.9821 60.0285 40.7691C59.3852 40.5561 58.8202 40.1592 58.4049 39.6285C57.9896 39.0977 57.7427 38.4571 57.6953 37.7876C57.648 37.118 57.8023 36.4496 58.1388 35.8668C58.4754 35.284 58.979 34.8131 59.586 34.5135C60.193 34.2139 60.8762 34.0991 61.5492 34.1837C62.4517 34.2976 63.2715 34.7615 63.8285 35.4733C64.3855 36.1851 64.6341 37.0866 64.5197 37.9797Z" fill="#353535"/>
<path d="M62.752 32.8022L62.6663 32.7965L62.774 32.8332L62.752 32.8022Z" fill="#353535"/>
<path d="M80.3843 25.9684L75.6668 25.5927L66.181 32.1126C66.0282 31.9718 65.8684 31.8377 65.704 31.7117L76.3915 22.4931L77.3466 16.8999L71.7899 18.3179L62.8759 30.3624C62.7775 30.3383 62.6779 30.3166 62.5784 30.2971C62.4788 30.2776 62.3931 30.2639 62.2994 30.249L71.6833 14.0889L70.5454 7.31012L64.7571 11.1016L58.6678 30.5651C57.4092 30.9977 56.2903 31.7553 55.4269 32.7594C54.5636 33.7635 53.9871 34.9777 53.7571 36.2763C53.5272 37.5748 53.6522 38.9106 54.1191 40.1453C54.5861 41.3801 55.378 42.4689 56.413 43.2991C57.448 44.1293 58.6884 44.6708 60.0059 44.8674C61.3234 45.0641 62.6701 44.9088 63.9065 44.4176C65.143 43.9264 66.2243 43.1172 67.0386 42.0737C67.8529 41.0302 68.3705 39.7904 68.538 38.4825C68.7277 37.0219 68.4696 35.5386 67.7971 34.2249L78.1245 30.0795L80.3843 25.9684ZM66.1243 38.1801C65.9979 39.1589 65.5811 40.0786 64.9266 40.8231C64.2721 41.5675 63.4093 42.1033 62.4472 42.3628C61.485 42.6222 60.4667 42.5936 59.521 42.2806C58.5753 41.9676 57.7446 41.3842 57.1338 40.6042C56.523 39.8242 56.1597 38.8826 56.0896 37.8983C56.0195 36.914 56.2459 35.9313 56.7401 35.0743C57.2343 34.2172 57.9742 33.5244 58.8662 33.0833C59.7582 32.6422 60.7624 32.4726 61.7518 32.596C62.0622 32.6352 62.3683 32.7023 62.6664 32.7965L62.752 32.8022L62.774 32.8331C63.1422 32.9599 63.4942 33.1286 63.8228 33.336C63.9213 33.3978 64.0185 33.4643 64.1123 33.533C64.6951 33.9614 65.1786 34.5082 65.5304 35.1366C66.0512 36.0626 66.2593 37.1289 66.1243 38.1801Z" fill="#353535"/>
<path d="M15.8645 37.9797C15.9503 38.6455 16.2337 39.2712 16.6788 39.7777C17.1239 40.2842 17.7108 40.6487 18.3653 40.8252C19.0198 41.0016 19.7124 40.9821 20.3557 40.7691C20.999 40.5561 21.564 40.1592 21.9793 39.6285C22.3946 39.0977 22.6416 38.4571 22.6889 37.7876C22.7363 37.118 22.5819 36.4496 22.2454 35.8668C21.9089 35.284 21.4053 34.8131 20.7982 34.5135C20.1912 34.2139 19.508 34.0991 18.8351 34.1837C17.9326 34.2976 17.1128 34.7615 16.5558 35.4733C15.9987 36.1851 15.7501 37.0866 15.8645 37.9797Z" fill="#353535"/>
<path d="M17.6323 32.8022L17.6103 32.8332L17.7179 32.7965L17.6323 32.8022ZM17.6323 32.8022L17.6103 32.8332L17.7179 32.7965L17.6323 32.8022Z" fill="#353535"/>
<path d="M26.6829 36.6223C26.5301 35.4233 26.0825 34.2797 25.3791 33.2917C24.6757 32.3038 23.738 31.5017 22.6484 30.9557C22.3491 30.8051 22.0396 30.675 21.7223 30.5663L15.6319 11.1016L9.84357 7.31012L8.70675 14.0889L18.0907 30.249C17.9958 30.2639 17.9032 30.2799 17.8106 30.2971C17.718 30.3143 17.6115 30.3383 17.5131 30.3624L8.59908 18.3179L3.04927 16.8999L4.00434 22.4931L14.6849 31.7117C14.5205 31.8377 14.3608 31.9718 14.2079 32.1115L4.7163 25.5927L0 25.9639L2.26554 30.0749L12.5918 34.2191C12.066 35.2516 11.7921 36.3916 11.7922 37.5477C11.7922 38.7038 12.0661 39.8438 12.592 40.8762C13.1178 41.9086 13.881 42.8047 14.8201 43.4925C15.7593 44.1803 16.8483 44.6407 17.9998 44.8367C19.1513 45.0327 20.3333 44.9589 21.4507 44.6212C22.5682 44.2834 23.5901 43.6912 24.4344 42.8921C25.2787 42.0929 25.9219 41.109 26.3124 40.0193C26.7029 38.9297 26.8298 37.7647 26.6829 36.6177V36.6223ZM19.8978 42.5065C18.7897 42.645 17.6664 42.4159 16.7039 41.855C15.7415 41.2942 14.9942 40.4333 14.5792 39.4072C14.1642 38.3811 14.1049 37.2478 14.4106 36.1848C14.7163 35.1218 15.3698 34.1892 16.2686 33.533C16.3623 33.4643 16.4584 33.3979 16.5568 33.336C16.8859 33.1286 17.2383 32.9599 17.6068 32.8331L17.6288 32.8022L17.7145 32.7965C18.0125 32.7023 18.3187 32.6352 18.629 32.596C19.2897 32.5069 19.9617 32.5482 20.6062 32.7175C21.2507 32.8868 21.8549 33.1807 22.384 33.5823C22.913 33.9839 23.3564 34.4853 23.6886 35.0574C24.0207 35.6295 24.235 36.2611 24.3191 36.9156C24.4032 37.5701 24.3554 38.2346 24.1786 38.8707C24.0017 39.5069 23.6992 40.1021 23.2885 40.6219C22.8779 41.1417 22.3672 41.5759 21.786 41.8994C21.2049 42.2228 20.5647 42.4292 19.9025 42.5065H19.8978Z" fill="#353535"/>
<path d="M14.26 38.1801C14.3857 39.1603 14.8023 40.0815 15.4571 40.8274C16.1119 41.5733 16.9756 42.1103 17.9389 42.3705C18.9022 42.6307 19.9218 42.6024 20.8688 42.2892C21.8159 41.976 22.6478 41.392 23.2594 40.611C23.8709 39.8299 24.2347 38.887 24.3046 37.9014C24.3745 36.9158 24.1475 35.9319 23.6523 35.0739C23.157 34.216 22.4158 33.5227 21.5222 33.0816C20.6287 32.6405 19.6231 32.4716 18.6325 32.596C17.3046 32.7635 16.0982 33.4456 15.2783 34.4927C14.4584 35.5398 14.0922 36.866 14.26 38.1801ZM18.8351 34.1836C19.5081 34.099 20.1914 34.2138 20.7986 34.5134C21.4057 34.8131 21.9094 35.2841 22.2459 35.867C22.5824 36.4499 22.7367 37.1185 22.6892 37.7882C22.6417 38.4578 22.3945 39.0985 21.979 39.6292C21.5635 40.1598 20.9982 40.5567 20.3548 40.7695C19.7113 40.9823 19.0185 41.0015 18.364 40.8247C17.7095 40.6478 17.1227 40.283 16.6778 39.7761C16.2329 39.2693 15.9499 38.6433 15.8645 37.9774C15.7505 37.0846 15.9993 36.1835 16.5563 35.4722C17.1133 34.7608 17.9329 34.2973 18.8351 34.1836Z" fill="#FFF8E6"/>
<path d="M15.1804 38.1813C15.0135 36.8677 15.3798 35.5422 16.199 34.4955C17.0182 33.4487 18.2235 32.766 19.5506 32.5972C19.6108 32.588 19.6721 32.5834 19.7323 32.5777C19.0333 32.5126 18.3282 32.5925 17.6621 32.8123C16.996 33.032 16.3836 33.3869 15.8639 33.8541C15.3443 34.3213 14.9289 34.8907 14.6442 35.5258C14.3595 36.1608 14.2119 36.8477 14.2106 37.5424C14.2094 38.2372 14.3547 38.9245 14.6371 39.5606C14.9196 40.1966 15.333 40.7674 15.851 41.2364C16.3691 41.7054 16.9802 42.0623 17.6455 42.2844C18.3109 42.5064 19.0157 42.5887 19.7149 42.526C18.573 42.4184 17.502 41.9297 16.678 41.1401C15.8539 40.3506 15.3258 39.3071 15.1804 38.1813Z" fill="#D6D1C1"/>
<path d="M15.8645 37.9797C15.9503 38.6455 16.2337 39.2712 16.6788 39.7777C17.1239 40.2842 17.7108 40.6487 18.3653 40.8252C19.0198 41.0016 19.7124 40.9821 20.3557 40.7691C20.999 40.5561 21.564 40.1592 21.9793 39.6285C22.3946 39.0977 22.6416 38.4571 22.6889 37.7876C22.7363 37.118 22.5819 36.4496 22.2454 35.8668C21.9089 35.284 21.4053 34.8131 20.7982 34.5135C20.1912 34.2139 19.508 34.0991 18.8351 34.1837C17.9326 34.2976 17.1128 34.7615 16.5558 35.4733C15.9987 36.1851 15.7501 37.0866 15.8645 37.9797Z" fill="#353535"/>
<path d="M15.8645 37.9797C15.9503 38.6455 16.2337 39.2712 16.6788 39.7777C17.1239 40.2842 17.7108 40.6487 18.3653 40.8252C19.0198 41.0016 19.7124 40.9821 20.3557 40.7691C20.999 40.5561 21.564 40.1592 21.9793 39.6285C22.3946 39.0977 22.6416 38.4571 22.6889 37.7876C22.7363 37.118 22.5819 36.4496 22.2454 35.8668C21.9089 35.284 21.4053 34.8131 20.7982 34.5135C20.1912 34.2139 19.508 34.0991 18.8351 34.1837C17.9326 34.2976 17.1128 34.7615 16.5558 35.4733C15.9987 36.1851 15.7501 37.0866 15.8645 37.9797Z" fill="#353535"/>
<path d="M64.0208 37.8628C63.9396 38.4899 63.6179 39.0621 63.1224 39.4612C62.6268 39.8603 61.9953 40.0557 61.3582 40.0071C61.9723 39.9598 62.5468 39.6889 62.9707 39.2468C63.3946 38.8046 63.6378 38.2227 63.6532 37.6134C63.6686 37.0042 63.4552 36.4109 63.0541 35.9484C62.6531 35.4858 62.093 35.1868 61.4821 35.1092C61.4416 35.1092 61.401 35.1 61.3605 35.0977C61.5284 35.085 61.697 35.0888 61.8641 35.1092C62.5187 35.1923 63.1133 35.5289 63.5175 36.045C63.9218 36.5612 64.1028 37.2149 64.0208 37.8628Z" fill="#FFF8E6"/>
<path d="M22.1703 37.8628C22.0891 38.4899 21.7674 39.0621 21.2719 39.4612C20.7763 39.8603 20.1447 40.0557 19.5077 40.0071C20.1218 39.9598 20.6963 39.6889 21.1202 39.2468C21.5441 38.8046 21.7873 38.2227 21.8027 37.6134C21.8181 37.0042 21.6047 36.4109 21.2036 35.9484C20.8026 35.4858 20.2425 35.1868 19.6316 35.1092C19.591 35.1092 19.5505 35.1 19.5158 35.0977C19.6832 35.085 19.8515 35.0888 20.0182 35.1092C20.672 35.1934 21.2654 35.5305 21.6687 36.0465C22.072 36.5625 22.2523 37.2156 22.1703 37.8628Z" fill="#FFF8E6"/>
<path d="M55.2863 32.1894C54.9552 33.0634 53.9504 34.0072 52.824 34.848C51.7544 35.6419 50.6031 36.3219 49.3892 36.8766C49.2167 39.0862 48.5568 41.5145 46.48 41.5145H33.9055C31.8298 41.5145 31.1688 39.0839 30.9963 36.8743C29.7834 36.3191 28.6329 35.6392 27.5639 34.8457C26.4375 34.0049 25.4326 33.0611 25.1015 32.1871C24.2182 29.8561 21.8601 21.1186 22.1564 19.1048C22.4528 17.0911 24.2715 14.6834 27.9123 13.121C31.5532 11.5586 32.543 11.7167 34.79 12.5116C37.037 13.3066 39.1787 13.5964 40.1951 13.5964C41.2115 13.5964 43.3532 13.3066 45.6013 12.5116C47.8495 11.7167 48.8428 11.5586 52.479 13.121C56.1152 14.6834 57.9397 17.0934 58.2337 19.1048C58.5278 21.1163 56.1696 29.8584 55.2863 32.1894Z" fill="#FFF8E6"/>
<path d="M24.9198 21.6604C25.0888 27.8516 28.5085 35.4207 28.5571 35.5399C28.2168 35.3215 27.8842 35.0924 27.5592 34.8526C26.4328 34.0118 25.428 33.068 25.0969 32.194C24.2136 29.863 21.8555 21.1255 22.153 19.1118C22.4505 17.098 24.2669 14.6903 27.9065 13.1279C28.4402 12.8988 28.916 12.7075 29.3478 12.5552C29.2112 12.6319 24.7519 15.5127 24.9198 21.6604Z" fill="#D6D1C1"/>
<path d="M57.6375 23.6329C57.4592 20.5493 54.7329 16.4612 52.3296 14.5769C49.7631 12.5655 43.9215 13.0683 43.6622 13.0878C44.2804 12.9355 44.9357 12.7442 45.599 12.5151C47.8472 11.7201 48.8404 11.5621 52.4767 13.1245C56.1129 14.6869 57.9373 17.0969 58.2314 19.1083C58.3437 19.8769 58.0682 21.6306 57.6375 23.6329Z" fill="#D6D1C1"/>
<path d="M57.8748 10.6594C57.8748 10.6594 54.8707 4.81759 45.2667 3.35828C45.2667 3.35828 51.4312 4.44188 57.8748 10.6594Z" fill="#FFF8E6"/>
<path d="M48.8879 16.625C48.3399 16.261 47.6956 16.065 47.0356 16.0614C44.6428 16.0614 42.7048 18.712 42.7048 21.9811C42.7048 23.5618 43.1598 24.9994 43.8995 26.0612C44.6879 27.1918 45.8004 27.894 47.0356 27.894C49.4274 27.894 51.3653 25.2434 51.3653 21.9765C51.3699 19.6135 50.3546 17.5745 48.8879 16.625ZM47.0356 27.3418C46.341 27.3418 45.6661 27.0681 45.0804 26.5572C45.301 26.6045 45.5261 26.6283 45.7518 26.6282C48.1435 26.6282 50.0826 23.9799 50.0826 20.7108C50.0877 19.8313 49.9413 18.9574 49.6496 18.1267C50.3766 19.1232 50.8073 20.5092 50.8073 21.9811C50.8073 23.453 50.394 24.815 49.6496 25.839C48.9377 26.8081 48.0115 27.3418 47.0403 27.3418H47.0356Z" fill="#353535"/>
<path d="M33.3429 16.0614C32.6829 16.065 32.0386 16.261 31.4906 16.625C30.0239 17.5734 29.0086 19.6135 29.0086 21.9811C29.0086 25.2479 30.9477 27.8985 33.3394 27.8985C34.5735 27.8985 35.686 27.1918 36.4743 26.0658C37.2141 25.004 37.6702 23.5664 37.6702 21.9857C37.6737 18.712 35.7346 16.0614 33.3429 16.0614ZM33.3429 27.3418C32.3716 27.3418 31.4455 26.8081 30.7358 25.839C29.9868 24.815 29.5782 23.445 29.5782 21.9811C29.5782 20.5172 30.0088 19.1175 30.7358 18.1267C30.4439 18.9574 30.2967 19.8312 30.3005 20.7108C30.3005 23.9799 32.2385 26.6282 34.6302 26.6282C34.8563 26.6283 35.0818 26.6045 35.3028 26.5572C34.7159 27.0681 34.0409 27.3418 33.3429 27.3418Z" fill="#353535"/>
<path d="M37.5266 30.186L39.2631 28.2387C39.3769 28.1054 39.5187 27.9982 39.6787 27.9247C39.8386 27.8512 40.0129 27.8131 40.1892 27.8131C40.3656 27.8131 40.5398 27.8512 40.6998 27.9247C40.8598 27.9982 41.0016 28.1054 41.1153 28.2387L42.8518 30.1791C43.0885 30.4568 43.2184 30.8084 43.2184 31.1717C43.2184 31.5349 43.0885 31.8865 42.8518 32.1642C42.7432 32.2929 42.6073 32.3964 42.4538 32.4675C42.3002 32.5385 42.1328 32.5754 41.9633 32.5754C41.7938 32.5754 41.6264 32.5385 41.4729 32.4675C41.3194 32.3964 41.1835 32.2929 41.0748 32.1642L40.4659 31.4849C40.4317 31.4445 40.3889 31.412 40.3406 31.3897C40.2923 31.3674 40.2396 31.3558 40.1863 31.3558C40.133 31.3558 40.0804 31.3674 40.0321 31.3897C39.9838 31.412 39.941 31.4445 39.9068 31.4849L39.2978 32.1642C39.1892 32.2927 39.0534 32.3961 38.8999 32.467C38.7465 32.5379 38.5792 32.5747 38.4099 32.5747C38.2406 32.5747 38.0733 32.5379 37.9199 32.467C37.7665 32.3961 37.6306 32.2927 37.522 32.1642C37.2875 31.8866 37.1595 31.5361 37.1603 31.1743C37.1612 30.8125 37.2909 30.4626 37.5266 30.186Z" fill="#353535"/>
<path d="M34.0212 40.4252V40.8834H33.9055C33.6787 40.8892 33.4536 40.8442 33.2469 40.7517C33.0403 40.6593 32.8574 40.5219 32.7119 40.3496C32.1933 39.7769 31.9016 38.8101 31.7395 37.7643C32.2998 38.9235 33.1136 40.2122 34.0212 40.4252Z" fill="#D6D1C1"/>
<path d="M37.7095 40.6783V40.8868H35.2947V39.4378C35.2947 39.4378 35.4637 40.6268 37.7095 40.6783Z" fill="#D6D1C1"/>
<path d="M41.4025 40.6783V40.8868H38.983V39.4378C38.983 39.4378 39.1566 40.6268 41.4025 40.6783Z" fill="#D6D1C1"/>
<path d="M45.0954 40.6783V40.8868H42.6759V39.4378C42.6759 39.4378 42.8495 40.6268 45.0954 40.6783Z" fill="#D6D1C1"/>
<path d="M47.5195 40.5042C47.2361 40.7616 46.8621 40.8989 46.4776 40.8868H46.3619V39.6382C46.4823 39.8776 46.7775 40.2763 47.5195 40.5042Z" fill="#D6D1C1"/>
<path d="M48.624 41.1915C48.3594 41.4968 48.0302 41.7406 47.6596 41.9057C47.2891 42.0708 46.8863 42.1532 46.48 42.1468H33.9055C33.4992 42.1531 33.0964 42.0707 32.7259 41.9056C32.3554 41.7405 32.0261 41.4967 31.7615 41.1915C29.7738 38.9945 30.3862 33.5044 30.414 33.2673C30.4389 33.1061 30.5261 32.9608 30.657 32.8618C30.788 32.7629 30.9527 32.7181 31.1164 32.7368C31.2801 32.7554 31.4301 32.8362 31.5348 32.962C31.6396 33.0879 31.691 33.249 31.6782 33.4116C31.5775 34.2833 31.4872 36.1252 31.7361 37.7643C31.8935 38.8101 32.1899 39.7734 32.7085 40.3496C32.8539 40.5229 33.0372 40.6613 33.2446 40.7543C33.4519 40.8474 33.6779 40.8927 33.9055 40.8868H34.0213V35.1137C34.0213 34.9466 34.0883 34.7864 34.2078 34.6683C34.3272 34.5501 34.4891 34.4837 34.658 34.4837C34.8268 34.4837 34.9888 34.5501 35.1082 34.6683C35.2276 34.7864 35.2947 34.9466 35.2947 35.1137V40.8868H37.7142V35.1137C37.7142 34.9466 37.7813 34.7864 37.9007 34.6683C38.0201 34.5501 38.182 34.4837 38.3509 34.4837C38.5198 34.4837 38.6817 34.5501 38.8011 34.6683C38.9205 34.7864 38.9876 34.9466 38.9876 35.1137V40.8868H41.4071V35.1137C41.4071 34.9466 41.4742 34.7864 41.5936 34.6683C41.713 34.5501 41.875 34.4837 42.0438 34.4837C42.2127 34.4837 42.3747 34.5501 42.4941 34.6683C42.6135 34.7864 42.6805 34.9466 42.6805 35.1137V40.8868H45.1001V35.1137C45.1001 34.9466 45.1671 34.7864 45.2865 34.6683C45.4059 34.5501 45.5679 34.4837 45.7368 34.4837C45.9056 34.4837 46.0676 34.5501 46.187 34.6683C46.3064 34.7864 46.3735 34.9466 46.3735 35.1137V40.8868H46.4892C46.8737 40.899 47.2477 40.7616 47.5311 40.5042C47.5859 40.4574 47.6373 40.4068 47.6851 40.353C49.0176 38.8754 48.8798 34.8445 48.7154 33.4162C48.6924 33.3291 48.6885 33.2382 48.7039 33.1496C48.7194 33.0609 48.7539 32.9765 48.805 32.9022C48.8562 32.8278 48.9229 32.7651 49.0005 32.7184C49.0782 32.6716 49.1651 32.6419 49.2554 32.6311C49.3457 32.6204 49.4373 32.6289 49.5239 32.6561C49.6106 32.6834 49.6904 32.7286 49.7579 32.7889C49.8254 32.8492 49.8791 32.923 49.9153 33.0055C49.9516 33.0881 49.9695 33.1773 49.968 33.2673C49.9969 33.5044 50.6082 38.9945 48.624 41.1915Z" fill="#353535"/>
</svg>
