<svg width="30" height="25" viewBox="0 0 30 25" fill="none" xmlns="http://www.w3.org/2000/svg">
<path d="M24.1989 24.4754H5.47374C5.27273 24.4754 5.07996 24.3961 4.93783 24.2549C4.7957 24.1137 4.71585 23.9223 4.71585 23.7226V11.5747C4.71585 11.375 4.7957 11.1835 4.93783 11.0423C5.07996 10.9012 5.27273 10.8218 5.47374 10.8218C5.67474 10.8218 5.86751 10.9012 6.00964 11.0423C6.15178 11.1835 6.23162 11.375 6.23162 11.5747V22.9751H23.4465V11.5747C23.4465 11.375 23.5263 11.1835 23.6685 11.0423C23.8106 10.9012 24.0034 10.8218 24.2044 10.8218C24.4054 10.8218 24.5981 10.9012 24.7403 11.0423C24.8824 11.1835 24.9623 11.375 24.9623 11.5747V23.728C24.9615 23.8268 24.9412 23.9246 24.9025 24.0157C24.8638 24.1067 24.8073 24.1893 24.7364 24.2587C24.6656 24.3282 24.5816 24.383 24.4894 24.4202C24.3972 24.4574 24.2985 24.4761 24.1989 24.4754Z" fill="white"/>
<path d="M24.199 5.55934C23.9979 5.55934 23.8052 5.48002 23.663 5.33883C23.5209 5.19765 23.4411 5.00615 23.4411 4.80648V3.08567H21.7088C21.5077 3.08567 21.315 3.00635 21.1728 2.86516C21.0307 2.72397 20.9509 2.53248 20.9509 2.33281C20.9509 2.13314 21.0307 1.94165 21.1728 1.80046C21.315 1.65927 21.5077 1.57996 21.7088 1.57996H24.199C24.2985 1.57996 24.397 1.59943 24.489 1.63726C24.5809 1.6751 24.6645 1.73055 24.7349 1.80046C24.8052 1.87037 24.8611 1.95337 24.8991 2.04471C24.9372 2.13605 24.9568 2.23395 24.9568 2.33281V4.80648C24.9568 4.90535 24.9372 5.00325 24.8991 5.09459C24.8611 5.18593 24.8052 5.26893 24.7349 5.33883C24.6645 5.40874 24.5809 5.4642 24.489 5.50203C24.397 5.53987 24.2985 5.55934 24.199 5.55934Z" fill="white"/>
<path d="M28.5775 12.4047C28.4116 12.4047 28.2504 12.3507 28.1184 12.2509L14.8359 2.17557L1.55446 12.2509C1.39466 12.3722 1.19293 12.4254 0.993643 12.3989C0.794354 12.3723 0.613835 12.2683 0.491797 12.1095C0.369759 11.9508 0.316198 11.7504 0.342899 11.5524C0.369599 11.3545 0.474373 11.1751 0.634171 11.0539L14.3768 0.630062C14.5089 0.530018 14.6704 0.47583 14.8364 0.47583C15.0025 0.47583 15.164 0.530018 15.296 0.630062L29.0387 11.0539C29.1646 11.1496 29.2571 11.2821 29.3033 11.4327C29.3494 11.5833 29.3469 11.7446 29.296 11.8937C29.2451 12.0428 29.1483 12.1723 29.0195 12.264C28.8906 12.3557 28.736 12.4049 28.5775 12.4047Z" fill="white"/>
</svg>
