<svg width="35" height="35" viewBox="0 0 35 35" fill="none" xmlns="http://www.w3.org/2000/svg">
<path d="M17.5 21.3889C19.6478 21.3889 21.3889 19.6478 21.3889 17.5C21.3889 15.3523 19.6478 13.6111 17.5 13.6111C15.3522 13.6111 13.6111 15.3523 13.6111 17.5C13.6111 19.6478 15.3522 21.3889 17.5 21.3889Z" fill="white"/>
<path d="M26.9951 12.7851C26.9437 11.648 26.7539 11.0304 26.5937 10.6182C26.4001 10.1144 26.1031 9.65678 25.7218 9.27474C25.3406 8.89269 24.8835 8.59472 24.3802 8.4C23.9695 8.24444 23.3504 8.05 22.2133 7.99866C20.9828 7.94266 20.6142 7.93022 17.4999 7.93022C14.3857 7.93022 14.0155 7.94266 12.7851 7.99866C11.648 8.05466 11.0304 8.24444 10.6182 8.4C10.1139 8.59417 9.656 8.8919 9.27393 9.27397C8.89185 9.65605 8.59412 10.114 8.39995 10.6182C8.2444 11.0304 8.04995 11.648 7.99862 12.7851C7.94728 14.0156 7.93328 14.3842 7.93328 17.5C7.93328 20.6158 7.94573 20.9829 8.00173 22.2133C8.05306 23.3504 8.24284 23.9695 8.40306 24.3802C8.59671 24.8844 8.89388 25.3425 9.27541 25.7248C9.65694 26.1072 10.1144 26.4053 10.6182 26.6C11.0304 26.7555 11.648 26.95 12.7851 27.0029C14.0155 27.0589 14.3842 27.0698 17.4999 27.0698C20.6157 27.0698 20.9828 27.0589 22.2133 27.0029C23.3504 26.95 23.9695 26.7602 24.3802 26.6C24.8848 26.4058 25.3432 26.1079 25.7255 25.7256C26.1079 25.3432 26.4058 24.8849 26.5999 24.3802C26.7555 23.9695 26.9499 23.3504 27.0013 22.2133C27.0588 20.9829 27.0697 20.6142 27.0697 17.5C27.0697 14.3858 27.0526 14.0156 26.9951 12.7851ZM17.4999 23.4889C16.3146 23.4895 15.1557 23.1385 14.1698 22.4803C13.1839 21.8222 12.4155 20.8864 11.9615 19.7914C11.5076 18.6963 11.3887 17.4913 11.6198 16.3287C11.8509 15.166 12.4217 14.0981 13.2599 13.2599C14.098 12.4217 15.166 11.851 16.3286 11.6199C17.4912 11.3888 18.6963 11.5077 19.7913 11.9616C20.8863 12.4155 21.8221 13.184 22.4803 14.1698C23.1385 15.1557 23.4895 16.3146 23.4888 17.5C23.488 19.0881 22.8568 20.6109 21.7338 21.7339C20.6109 22.8568 19.088 23.4881 17.4999 23.4889ZM23.7222 12.67C23.4453 12.67 23.1746 12.5879 22.9444 12.4341C22.7141 12.2802 22.5347 12.0616 22.4287 11.8058C22.3228 11.5499 22.295 11.2684 22.3491 10.9969C22.4031 10.7253 22.5364 10.4758 22.7322 10.28C22.928 10.0843 23.1775 9.95092 23.449 9.8969C23.7206 9.84288 24.0021 9.8706 24.2579 9.97657C24.5137 10.0825 24.7324 10.262 24.8862 10.4922C25.0401 10.7224 25.1222 10.9931 25.1222 11.27C25.1226 11.6408 24.9759 11.9966 24.7143 12.2593C24.4527 12.5221 24.0976 12.6703 23.7268 12.6716L23.7222 12.67ZM26.9888 12.7836C26.9375 11.6464 26.7477 11.0289 26.5875 10.6167C26.3943 10.1138 26.0982 9.6568 25.7181 9.27507C25.338 8.89334 24.8822 8.59527 24.3802 8.4C23.9695 8.24444 23.3504 8.05 22.2133 7.99866C20.9828 7.94266 20.6142 7.93022 17.4999 7.93022C14.3857 7.93022 14.0155 7.94266 12.7851 7.99866C11.648 8.05466 11.0304 8.24444 10.6182 8.4C10.1139 8.59417 9.656 8.8919 9.27393 9.27397C8.89185 9.65605 8.59412 10.114 8.39995 10.6182C8.2444 11.0304 8.04995 11.648 7.99862 12.7851C7.94728 14.0156 7.93328 14.3842 7.93328 17.5C7.93328 20.6158 7.94573 20.9829 8.00173 22.2133C8.05306 23.3504 8.24284 23.9695 8.40306 24.3802C8.59671 24.8844 8.89388 25.3425 9.27541 25.7248C9.65694 26.1072 10.1144 26.4053 10.6182 26.6C11.0304 26.7555 11.648 26.95 12.7851 27.0029C14.0155 27.0589 14.3842 27.0698 17.4999 27.0698C20.6157 27.0698 20.9828 27.0589 22.2133 27.0029C23.3504 26.95 23.9695 26.7602 24.3802 26.6C24.8848 26.4058 25.3432 26.1079 25.7255 25.7256C26.1079 25.3432 26.4058 24.8849 26.5999 24.3802C26.7555 23.9695 26.9499 23.3504 27.0013 22.2133C27.0588 20.9829 27.0697 20.6142 27.0697 17.5C27.0697 14.3858 27.0526 14.0156 26.9951 12.7851L26.9888 12.7836ZM17.4999 23.4889C16.3146 23.4895 15.1557 23.1385 14.1698 22.4803C13.1839 21.8222 12.4155 20.8864 11.9615 19.7914C11.5076 18.6963 11.3887 17.4913 11.6198 16.3287C11.8509 15.166 12.4217 14.0981 13.2599 13.2599C14.098 12.4217 15.166 11.851 16.3286 11.6199C17.4912 11.3888 18.6963 11.5077 19.7913 11.9616C20.8863 12.4155 21.8221 13.184 22.4803 14.1698C23.1385 15.1557 23.4895 16.3146 23.4888 17.5C23.488 19.0881 22.8568 20.6109 21.7338 21.7339C20.6109 22.8568 19.088 23.4881 17.4999 23.4889ZM23.7222 12.67C23.4453 12.67 23.1746 12.5879 22.9444 12.4341C22.7141 12.2802 22.5347 12.0616 22.4287 11.8058C22.3228 11.5499 22.295 11.2684 22.3491 10.9969C22.4031 10.7253 22.5364 10.4758 22.7322 10.28C22.928 10.0843 23.1775 9.95092 23.449 9.8969C23.7206 9.84288 24.0021 9.8706 24.2579 9.97657C24.5137 10.0825 24.7324 10.262 24.8862 10.4922C25.0401 10.7224 25.1222 10.9931 25.1222 11.27C25.1226 11.6408 24.9759 11.9966 24.7143 12.2593C24.4527 12.5221 24.0976 12.6703 23.7268 12.6716L23.7222 12.67ZM17.4999 6.91544e-08C14.0388 6.91544e-08 10.6553 1.02636 7.77747 2.94928C4.89961 4.87221 2.6566 7.60533 1.33206 10.803C0.00752902 14.0007 -0.339029 17.5194 0.336212 20.9141C1.01145 24.3087 2.67817 27.4269 5.12558 29.8744C7.573 32.3218 10.6912 33.9885 14.0859 34.6637C17.4805 35.339 20.9992 34.9924 24.1969 33.6679C27.3946 32.3433 30.1277 30.1003 32.0507 27.2225C33.9736 24.3446 34.9999 20.9612 34.9999 17.5C35.0001 15.2018 34.5476 12.9261 33.6683 10.8028C32.7889 8.67951 31.4998 6.75024 29.8748 5.12517C28.2497 3.50011 26.3204 2.21108 24.1971 1.33169C22.0739 0.452307 19.7981 -0.000204242 17.4999 6.91544e-08ZM29.0888 22.3098C29.0698 23.2773 28.8868 24.2346 28.5475 25.1409C28.248 25.9163 27.7897 26.6204 27.2019 27.2082C26.6142 27.796 25.91 28.2543 25.1346 28.5538C24.2283 28.893 23.271 29.0761 22.3035 29.0951C21.0591 29.1527 20.6608 29.1667 17.4937 29.1667C14.3266 29.1667 13.9268 29.1527 12.6824 29.0951C11.7149 29.0761 10.7576 28.893 9.85128 28.5538C9.0759 28.2543 8.37172 27.796 7.78396 27.2082C7.19621 26.6204 6.73787 25.9163 6.4384 25.1409C6.10392 24.2338 5.92561 23.2765 5.91106 22.3098C5.85351 21.0653 5.84106 20.6671 5.84106 17.5C5.84106 14.3329 5.85351 13.9331 5.91106 12.6887C5.9301 11.7211 6.11314 10.7639 6.4524 9.85755C6.75102 9.08292 7.20816 8.37921 7.79452 7.7915C8.38089 7.2038 9.08356 6.74505 9.85751 6.44466C10.7643 6.10806 11.7215 5.92765 12.6886 5.91111C13.9331 5.85355 14.3313 5.84111 17.4999 5.84111C20.6686 5.84111 21.0653 5.85355 22.3097 5.91111C23.2773 5.93014 24.2345 6.11318 25.1408 6.45244C25.9162 6.75192 26.6204 7.21026 27.2082 7.79801C27.7959 8.38576 28.2542 9.08994 28.5537 9.86533C28.89 10.7695 29.0709 11.7241 29.0888 12.6887C29.1464 13.9331 29.1604 14.3313 29.1604 17.5C29.1604 20.6687 29.1526 21.0653 29.0888 22.3098ZM26.5999 10.6182C26.4056 10.1138 26.1076 9.6558 25.7253 9.27372C25.3429 8.89163 24.8847 8.59399 24.3802 8.4C23.9695 8.24444 23.3504 8.05 22.2133 7.99866C20.9828 7.94266 20.6142 7.93022 17.4999 7.93022C14.3857 7.93022 14.0155 7.94266 12.7851 7.99866C11.648 8.05466 11.0304 8.24444 10.6182 8.4C10.1139 8.59417 9.656 8.8919 9.27393 9.27397C8.89185 9.65605 8.59412 10.114 8.39995 10.6182C8.2444 11.0304 8.04995 11.648 7.99862 12.7851C7.94728 14.0156 7.93328 14.3842 7.93328 17.5C7.93328 20.6158 7.94573 20.9829 8.00173 22.2133C8.05306 23.3504 8.24284 23.9695 8.40306 24.3802C8.59671 24.8844 8.89388 25.3425 9.27541 25.7248C9.65694 26.1072 10.1144 26.4053 10.6182 26.6C11.0304 26.7555 11.648 26.95 12.7851 27.0029C14.0155 27.0589 14.3842 27.0698 17.4999 27.0698C20.6157 27.0698 20.9828 27.0589 22.2133 27.0029C23.3504 26.95 23.9695 26.7602 24.3802 26.6C24.8848 26.4058 25.3432 26.1079 25.7255 25.7256C26.1079 25.3432 26.4058 24.8849 26.5999 24.3802C26.7555 23.9695 26.9499 23.3504 27.0013 22.2133C27.0588 20.9829 27.0697 20.6142 27.0697 17.5C27.0697 14.3858 27.0588 14.0156 27.0013 12.7851C26.9437 11.648 26.7555 11.0304 26.5999 10.6182ZM17.4999 23.4889C16.3146 23.4895 15.1557 23.1385 14.1698 22.4803C13.1839 21.8222 12.4155 20.8864 11.9615 19.7914C11.5076 18.6963 11.3887 17.4913 11.6198 16.3287C11.8509 15.166 12.4217 14.0981 13.2599 13.2599C14.098 12.4217 15.166 11.851 16.3286 11.6199C17.4912 11.3888 18.6963 11.5077 19.7913 11.9616C20.8863 12.4155 21.8221 13.184 22.4803 14.1698C23.1385 15.1557 23.4895 16.3146 23.4888 17.5C23.488 19.0881 22.8568 20.6109 21.7338 21.7339C20.6109 22.8568 19.088 23.4881 17.4999 23.4889ZM23.7222 12.67C23.4453 12.67 23.1746 12.5879 22.9444 12.4341C22.7141 12.2802 22.5347 12.0616 22.4287 11.8058C22.3228 11.5499 22.295 11.2684 22.3491 10.9969C22.4031 10.7253 22.5364 10.4758 22.7322 10.28C22.928 10.0843 23.1775 9.95092 23.449 9.8969C23.7206 9.84288 24.0021 9.8706 24.2579 9.97657C24.5137 10.0825 24.7324 10.262 24.8862 10.4922C25.0401 10.7224 25.1222 10.9931 25.1222 11.27C25.1226 11.6408 24.9759 11.9966 24.7143 12.2593C24.4527 12.5221 24.0976 12.6703 23.7268 12.6716L23.7222 12.67Z" fill="white"/>
</svg>
