<svg width="26" height="25" viewBox="0 0 26 25" fill="none" xmlns="http://www.w3.org/2000/svg">
<path d="M4.69313 7.36557C4.49375 7.36557 4.30254 7.28625 4.16156 7.14506C4.02058 7.00387 3.94138 6.81238 3.94138 6.61271C3.94138 6.41304 4.02058 6.22155 4.16156 6.08036C4.30254 5.93917 4.49375 5.85985 4.69313 5.85985L11.0293 5.83942C11.2287 5.83942 11.4199 5.91874 11.5609 6.05992C11.7019 6.20111 11.7811 6.3926 11.7811 6.59227C11.7811 6.79194 11.7019 6.98344 11.5609 7.12462C11.4199 7.26581 11.2287 7.34513 11.0293 7.34513L4.69313 7.36557Z" fill="white"/>
<path d="M21.9018 17.414H6.43717C6.26008 17.4141 6.08863 17.3516 5.95307 17.2375C5.8175 17.1234 5.72652 16.965 5.69616 16.7902L3.1284 1.98154H1.08793C0.888556 1.98154 0.697345 1.90223 0.556364 1.76104C0.415384 1.61985 0.336182 1.42836 0.336182 1.22869C0.336182 1.02902 0.415384 0.837525 0.556364 0.696337C0.697345 0.555149 0.888556 0.47583 1.08793 0.47583L3.75772 0.47583C3.93463 0.475991 4.10582 0.538632 4.24116 0.652731C4.3765 0.76683 4.46733 0.925076 4.49766 1.09963L7.07509 15.9083H21.324L23.6061 7.30424L17.2613 7.32468C17.0619 7.32468 16.8707 7.24536 16.7297 7.10417C16.5888 6.96298 16.5096 6.77149 16.5096 6.57182C16.5096 6.37215 16.5888 6.18066 16.7297 6.03947C16.8707 5.89828 17.0619 5.81896 17.2613 5.81896L24.5866 5.79423C24.7017 5.7943 24.8153 5.82087 24.9186 5.87189C25.0219 5.9229 25.1121 5.99699 25.1822 6.08845C25.2524 6.17991 25.3006 6.28628 25.3232 6.39937C25.3458 6.51245 25.3422 6.62923 25.3126 6.74067L22.6277 16.8505C22.5859 17.0116 22.492 17.1542 22.3607 17.2562C22.2293 17.3582 22.0679 17.4137 21.9018 17.414Z" fill="white"/>
<path d="M7.60023 24.4758C6.98676 24.4758 6.38707 24.2936 5.87701 23.9523C5.36695 23.6109 4.96942 23.1258 4.73471 22.5581C4.49999 21.9905 4.43863 21.3659 4.55839 20.7634C4.67815 20.1608 4.97365 19.6074 5.40751 19.173C5.84137 18.7387 6.39411 18.443 6.99581 18.3232C7.59752 18.2035 8.22116 18.2652 8.78787 18.5004C9.35458 18.7357 9.83889 19.134 10.1796 19.6449C10.5202 20.1558 10.7019 20.7565 10.7017 21.3708C10.7009 22.1942 10.3738 22.9837 9.79232 23.5658C9.21083 24.148 8.42244 24.4753 7.60023 24.4758ZM7.60023 19.7705C7.28417 19.7705 6.97521 19.8643 6.71242 20.0402C6.44963 20.216 6.24481 20.466 6.12386 20.7584C6.00291 21.0508 5.97127 21.3726 6.03293 21.683C6.09459 21.9935 6.24678 22.2786 6.47027 22.5024C6.69375 22.7263 6.97849 22.8787 7.28847 22.9404C7.59845 23.0022 7.91976 22.9705 8.21176 22.8494C8.50376 22.7282 8.75333 22.5231 8.92892 22.2599C9.10451 21.9968 9.19823 21.6873 9.19823 21.3708C9.19795 20.9465 9.0295 20.5396 8.72987 20.2395C8.43025 19.9394 8.02396 19.7707 7.60023 19.7705Z" fill="white"/>
<path d="M21.1844 24.4758C20.5709 24.476 19.9711 24.294 19.4609 23.9528C18.9507 23.6116 18.553 23.1265 18.3181 22.5589C18.0832 21.9913 18.0217 21.3667 18.1413 20.764C18.261 20.1614 18.5564 19.6079 18.9902 19.1734C19.424 18.739 19.9768 18.4431 20.5785 18.3233C21.1802 18.2035 21.8039 18.2651 22.3707 18.5003C22.9375 18.7355 23.4218 19.1338 23.7626 19.6448C24.1033 20.1557 24.285 20.7564 24.2848 21.3708C24.2837 22.194 23.9567 22.9831 23.3755 23.5651C22.7943 24.1472 22.0063 24.4747 21.1844 24.4758ZM21.1844 19.7705C20.8683 19.7702 20.5592 19.8639 20.2963 20.0396C20.0333 20.2154 19.8284 20.4652 19.7072 20.7576C19.5861 21.0501 19.5543 21.3719 19.6159 21.6824C19.6774 21.9929 19.8295 22.2781 20.053 22.5021C20.2764 22.726 20.5611 22.8785 20.8711 22.9404C21.1812 23.0022 21.5025 22.9706 21.7946 22.8495C22.0866 22.7284 22.3363 22.5232 22.5119 22.26C22.6876 21.9968 22.7813 21.6874 22.7813 21.3708C22.7807 20.9467 22.6123 20.5402 22.313 20.2402C22.0137 19.9402 21.6078 19.7713 21.1844 19.7705Z" fill="white"/>
</svg>
