<svg width="35" height="35" viewBox="0 0 35 35" fill="none" xmlns="http://www.w3.org/2000/svg">
<path d="M17.5 6.91544e-08C14.0388 6.91544e-08 10.6553 1.02636 7.77748 2.94928C4.89962 4.87221 2.6566 7.60533 1.33207 10.803C0.00753665 14.0007 -0.339022 17.5194 0.33622 20.9141C1.01146 24.3087 2.67817 27.4269 5.12559 29.8744C7.57301 32.3218 10.6912 33.9885 14.0859 34.6637C17.4805 35.339 20.9992 34.9924 24.1969 33.6679C27.3946 32.3433 30.1277 30.1003 32.0507 27.2225C33.9736 24.3446 35 20.9612 35 17.5C35.0002 15.2018 34.5476 12.9261 33.6683 10.8028C32.7889 8.67951 31.4998 6.75024 29.8748 5.12517C28.2497 3.50011 26.3204 2.21108 24.1972 1.33169C22.0739 0.452307 19.7981 -0.000204242 17.5 6.91544e-08ZM26.7773 12.7416C26.7866 12.9469 26.7913 13.1538 26.7913 13.3638C26.7913 19.6887 21.9768 26.9842 13.1708 26.9842C10.5691 26.9853 8.02199 26.238 5.83329 24.8313C6.2123 24.8752 6.59353 24.897 6.97507 24.8967C9.13052 24.8998 11.2244 24.1783 12.9204 22.848C11.9213 22.8291 10.953 22.4983 10.1512 21.902C9.34929 21.3057 8.75386 20.4736 8.44818 19.5222C8.74444 19.5798 9.0455 19.6089 9.34729 19.6093C9.77376 19.6103 10.1985 19.5549 10.6104 19.4444C9.52663 19.2251 8.55209 18.6376 7.85208 17.7817C7.15206 16.9257 6.76966 15.854 6.76974 14.7482V14.686C7.43399 15.0568 8.17777 15.2622 8.93818 15.2849C7.92465 14.6081 7.20726 13.5703 6.93212 12.3831C6.65697 11.1958 6.84478 9.9483 7.45729 8.89466C8.65906 10.3738 10.1586 11.5835 11.8586 12.4451C13.5585 13.3068 15.4207 13.801 17.3242 13.8958C17.0848 12.8693 17.1907 11.7925 17.6254 10.8324C18.0602 9.87218 18.7996 9.08223 19.7289 8.58495C20.6582 8.08768 21.7256 7.91084 22.7657 8.08186C23.8057 8.25288 24.7603 8.76221 25.4815 9.53089C26.5534 9.31936 27.5814 8.92638 28.5211 8.36889C28.1633 9.47635 27.4153 10.4161 26.4164 11.0133C27.3654 10.9035 28.2924 10.6518 29.1666 10.2667C28.5234 11.2269 27.7143 12.0649 26.7773 12.7416Z" fill="white"/>
</svg>
