<svg width="35" height="35" viewBox="0 0 35 35" fill="none" xmlns="http://www.w3.org/2000/svg">
<path d="M15.1666 14.0001L21.2286 17.5001L15.1666 21.0001V14.0001Z" fill="white"/>
<path d="M17.5 0C14.0388 0 10.6553 1.02636 7.77748 2.94928C4.89962 4.87221 2.6566 7.60533 1.33207 10.803C0.00753665 14.0007 -0.339022 17.5194 0.33622 20.9141C1.01146 24.3087 2.67817 27.4269 5.12559 29.8744C7.57301 32.3218 10.6912 33.9885 14.0859 34.6637C17.4805 35.339 20.9992 34.9924 24.1969 33.6679C27.3946 32.3433 30.1277 30.1003 32.0507 27.2225C33.9736 24.3446 35 20.9612 35 17.5C35 12.8587 33.1562 8.40752 29.8743 5.12563C26.5924 1.84374 22.1412 0 17.5 0V0ZM28.6782 23.1156C28.5455 23.6101 28.2851 24.061 27.9231 24.4231C27.561 24.7852 27.1101 25.0456 26.6155 25.1782C24.7955 25.6667 17.5 25.6667 17.5 25.6667C17.5 25.6667 10.2028 25.6667 8.38285 25.1782C7.88851 25.0451 7.4378 24.7846 7.07581 24.4226C6.71382 24.0606 6.45325 23.6099 6.32018 23.1156C5.83329 21.2956 5.83329 17.5 5.83329 17.5C5.83329 17.5 5.83329 13.7029 6.32018 11.8829C6.45354 11.3887 6.7142 10.9381 7.07615 10.5762C7.43809 10.2142 7.88865 9.95357 8.38285 9.82022C10.2028 9.33333 17.5 9.33333 17.5 9.33333C17.5 9.33333 24.7955 9.33333 26.6155 9.82022C27.1099 9.95314 27.5607 10.2137 27.9227 10.5757C28.2847 10.9377 28.5452 11.3885 28.6782 11.8829C29.1666 13.7029 29.1666 17.5 29.1666 17.5C29.1666 17.5 29.1666 21.2956 28.6782 23.1156Z" fill="white"/>
</svg>
